<svg xmlns="http://www.w3.org/2000/svg" width="1024" height="1024" viewBox="0 0 1024 1024">
  <defs>
    <linearGradient id="g" x1="0" y1="0" x2="0" y2="1">
      <stop offset="0" stop-color="#1F2128"/>
      <stop offset="1" stop-color="#141519"/>
    </linearGradient>
    <linearGradient id="c" x1="0" y1="214.0" x2="0" y2="734.0" gradientUnits="userSpaceOnUse">
      <stop offset="0" stop-color="#F2EFE8"/>
      <stop offset="1" stop-color="#CFCABF"/>
    </linearGradient>
    <radialGradient id="glow" cx="0.5" cy="0.5" r="0.55">
      <stop offset="0" stop-color="#8FB0E3" stop-opacity="0.14"/>
      <stop offset="1" stop-color="#8FB0E3" stop-opacity="0"/>
    </radialGradient>
  </defs>
  <rect width="1024" height="1024"  fill="url(#g)"/>
  <rect width="1024" height="1024"  fill="url(#glow)"/>
  <path d="M 104.0,734.0 L 104.0,698.0 Q 104.0,650.0 152.0,650.0 L 152.0,650.0 Q 200.0,650.0 200.0,698.0 L 200.0,734.0 Z" fill="url(#c)"/><path d="M 224.0,734.0 L 224.0,568.2216089362626 Q 224.0,520.2216089362626 272.0,520.2216089362626 L 272.0,520.2216089362626 Q 320.0,520.2216089362626 320.0,568.2216089362626 L 320.0,734.0 Z" fill="#DCBB78"/><path d="M 344.0,734.0 L 344.0,365.6165504832598 Q 344.0,317.6165504832598 392.0,317.6165504832598 L 392.0,317.6165504832598 Q 440.0,317.6165504832598 440.0,365.6165504832598 L 440.0,734.0 Z" fill="url(#c)"/><path d="M 464.0,734.0 L 464.0,262.0 Q 464.0,214.0 512.0,214.0 L 512.0,214.0 Q 560.0,214.0 560.0,262.0 L 560.0,734.0 Z" fill="url(#c)"/><path d="M 584.0,734.0 L 584.0,365.6165504832598 Q 584.0,317.6165504832598 632.0,317.6165504832598 L 632.0,317.6165504832598 Q 680.0,317.6165504832598 680.0,365.6165504832598 L 680.0,734.0 Z" fill="url(#c)"/><path d="M 704.0,734.0 L 704.0,568.2216089362626 Q 704.0,520.2216089362626 752.0,520.2216089362626 L 752.0,520.2216089362626 Q 800.0,520.2216089362626 800.0,568.2216089362626 L 800.0,734.0 Z" fill="url(#c)"/><path d="M 824.0,734.0 L 824.0,698.0 Q 824.0,650.0 872.0,650.0 L 872.0,650.0 Q 920.0,650.0 920.0,698.0 L 920.0,734.0 Z" fill="url(#c)"/>
  <rect x="78.0" y="734.0" width="868.0" height="11.0"
        rx="5.5" fill="#F2EFE8" opacity="0.24"/>
</svg>